<?xml version="1.0" encoding="UTF-8"?><svg id="discord" xmlns="http://www.w3.org/2000/svg" viewBox="0 0 256 256"><defs><style>.cls-1{fill:#fff;stroke-width:0px;}</style></defs><path class="cls-1" d="M216.85,46.07c-16.81-7.83-34.58-13.4-52.86-16.55-2.41,4.6-4.6,9.19-6.66,13.9-19.42-2.87-39.07-2.87-58.6,0-2.07-4.71-4.25-9.42-6.78-13.79-18.38,3.1-36.08,8.62-52.86,16.43C9.21,89.09-4.24,141.4,1.17,193.5c19.5,14.63,41.39,25.79,64.69,32.98,5.29-7.12,9.88-14.71,13.79-22.75-7.47-2.87-14.82-6.32-21.83-10.57,1.95-1.38,3.68-2.76,5.4-4.25,41.14,19.53,88.48,19.53,129.61,0l5.29,4.25c-6.89,4.14-14.36,7.7-21.83,10.57,4.02,8.04,8.62,15.51,13.79,22.75,23.33-7.24,45.27-18.38,64.81-32.98,5.4-55.96-8.96-104.45-37.92-147.42h-.11ZM85.51,163.85c-12.64,0-22.98-11.72-22.98-26.08s10.11-25.97,22.98-25.97,23.21,11.72,22.98,25.97c0,14.36-10.23,26.08-22.98,26.08ZM170.54,163.85c-12.64,0-22.98-11.72-22.98-26.08s10.11-25.97,22.98-25.97,23.21,11.72,22.98,25.97c0,14.36-10.11,26.08-22.98,26.08Z"/></svg>