<?xml version="1.0" encoding="UTF-8"?><svg id="headphone-unmuted" xmlns="http://www.w3.org/2000/svg" viewBox="0 0 80 80"><defs><style>.cls-1{fill:#4baf00;stroke-width:0px;}</style></defs><path class="cls-1" d="M40,27.87c-6.78,0-12.27,5.76-12.28,12.87,0,.48.03.96.08,1.44h2.55c2.23,0,4.31,1.14,5.59,3.05l1.87,2.82c1.1,1.65,1.01,3.87-.23,5.41-1.16,1.52-3.19,1.97-4.84,1.06-7.25-4.21-9.87-13.79-5.85-21.4,4.01-7.61,13.14-10.36,20.39-6.14,7.25,4.21,9.87,13.79,5.85,21.4-1.36,2.58-3.39,4.71-5.85,6.14-1.73,1.02-3.72.33-4.84-1.06-1.24-1.54-1.33-3.76-.23-5.41l1.88-2.82c1.28-1.91,3.36-3.05,5.59-3.05h2.54c.75-7.07-4.1-13.44-10.83-14.23-.46-.05-.91-.08-1.37-.08Z"/></svg>