<?xml version="1.0" encoding="UTF-8"?><svg id="headphone-muted" xmlns="http://www.w3.org/2000/svg" viewBox="0 0 80 80"><defs><style>.cls-1{fill:red;stroke-width:0px;}</style></defs><path class="cls-1" d="M54.52,27.29c.45-.62.33-1.5-.27-1.96-.48-.37-1.14-.37-1.62,0l-27.02,28.06c-.6.46-.72,1.34-.27,1.96s1.29.75,1.89.28c.1-.08.19-.17.27-.28l27.02-28.06ZM46.86,27.77c.26-.26.27-.7.02-.97-.05-.05-.1-.1-.17-.13-7.37-3.89-16.34-.77-20.05,6.96-2.12,4.43-2.12,9.65,0,14.08.19.43.72.5,1.03.17l4.34-4.56c.34-.36.2-.97-.27-1.08-.46-.1-.92-.14-1.38-.14h-2.54c-.75-7.04,4.07-13.38,10.78-14.17,2.19-.26,4.4.11,6.41,1.06.27.13.6.07.8-.14,0,0,1.03-1.08,1.03-1.08ZM51.12,35.38c-.12-.28-.07-.61.14-.83l1.03-1.08c.25-.27.66-.28.92-.02.05.05.09.11.12.17,3.61,7.52.91,16.68-6.11,20.75-1.72,1.01-3.71.33-4.82-1.05-1.23-1.53-1.33-3.74-.23-5.38l1.87-2.81c1.27-1.9,3.35-3.04,5.57-3.03h2.52c.24-2.3-.11-4.62-1.02-6.72ZM37.41,49.08c.34-.36.88-.26,1,.2.38,1.41.06,2.93-.84,4.05-1.16,1.52-3.18,1.96-4.82,1.05-.11-.06-.14-.2-.09-.31,0-.02.02-.03.03-.05l4.72-4.96h-.01Z"/></svg>