<?xml version="1.0" encoding="UTF-8"?><svg id="microphone-muted" xmlns="http://www.w3.org/2000/svg" viewBox="0 0 80 80"><defs><style>.cls-1{fill:red;stroke-width:0px;}</style></defs><path class="cls-1" d="M26.2,55.9l30-30c.5-.66.36-1.6-.3-2.1-.53-.4-1.27-.4-1.8,0l-30,30c-.66.5-.8,1.44-.3,2.1s1.44.8,2.1.3c.11-.09.21-.19.3-.3Z"/><path class="cls-1" d="M38.2,47.98c-.31.31-.15.96.3,1.02v3s-3,0-3,0c-.83,0-1.5.67-1.5,1.5s.67,1.5,1.5,1.5h9c.83,0,1.5-.67,1.5-1.5s-.67-1.5-1.5-1.5h-3v-3c6-.76,10.5-5.95,10.5-12,0-.83-.67-1.5-1.5-1.5s-1.5.67-1.5,1.5c0,2.17-.78,4.18-2.07,5.74l-.03.03c-1.6,1.92-3.92,3.09-6.42,3.22-.19,0-.37.09-.51.22l-1.77,1.77v-.02Z"/><path class="cls-1" d="M45.5,29c.22-.22.16-.73,0-1-1.69-2.85-5.47-3.85-8.32-2.16-1.82,1.08-3.18,3.04-3.18,5.16v6c0,.45,0,.83.19,1.28.16.39.93.6,1.31.22l10-9.5Z"/><path class="cls-1" d="M29.74,42.82c.24.42.79.46,1.12.13l1.12-1.12c.24-.24.28-.6.12-.91-.64-1.26-1.12-2.5-1.11-3.91,0-.83-.67-1.5-1.5-1.5s-1.5.67-1.5,1.5c0,2.17.74,4.06,1.74,5.82Z"/></svg>