<?xml version="1.0" encoding="UTF-8"?><svg id="unmuted" xmlns="http://www.w3.org/2000/svg" viewBox="0 0 80 80"><defs><style>.cls-1{fill:#4baf00;}.cls-1,.cls-2{stroke-width:0px;}.cls-2{fill:#fff59b;}</style></defs><path class="cls-1" d="M40,15c-3.3,0-6,2.7-6,6v6c0,3.3,2.7,5.91,6,5.91s6-2.61,6-5.91v-6c0-3.3-2.7-6-6-6Z"/><path class="cls-1" d="M31,27c0-.82-.68-1.5-1.5-1.5s-1.5.68-1.5,1.5c0,6.02,4.53,11.25,10.5,12v3h-3c-.82,0-1.5.68-1.5,1.5s.68,1.5,1.5,1.5h9c.82,0,1.5-.68,1.5-1.5s-.68-1.5-1.5-1.5h-3v-3c5.97-.75,10.5-5.98,10.5-12,0-.82-.68-1.5-1.5-1.5s-1.5.68-1.5,1.5c0,4.95-4.05,9-9,9s-9-4.05-9-9Z"/><path class="cls-2" d="M22.7,55.97c-.97-.45-2.01-.78-3.09-.97-.13.24-.29.57-.4.82-1.15-.17-2.3-.17-3.43,0-.11-.26-.27-.58-.4-.82-1.09.19-2.13.52-3.1.97-1.96,2.96-2.49,5.84-2.22,8.69,1.3.97,2.56,1.56,3.79,1.94.31-.42.58-.87.81-1.34-.45-.17-.88-.38-1.28-.62.11-.08.21-.16.31-.25,2.47,1.15,5.15,1.15,7.59,0,.1.09.21.17.31.25-.41.24-.84.45-1.28.62.23.47.51.92.81,1.34,1.24-.39,2.5-.97,3.8-1.95.31-3.3-.53-6.16-2.23-8.69ZM15.01,62.91c-.74,0-1.35-.69-1.35-1.53s.59-1.53,1.35-1.53,1.36.69,1.35,1.53c0,.84-.59,1.53-1.35,1.53ZM19.99,62.91c-.74,0-1.35-.69-1.35-1.53s.59-1.53,1.35-1.53,1.36.69,1.35,1.53c0,.84-.59,1.53-1.35,1.53Z"/><path class="cls-2" d="M30.15,57.96h3.22c.78,0,1.43.12,1.97.37.54.25.94.59,1.21,1.03.27.44.4.95.4,1.51s-.14,1.06-.42,1.51c-.28.45-.7.81-1.27,1.07-.57.26-1.28.4-2.12.4h-2.99v-5.9ZM33.11,62.36c.52,0,.92-.13,1.21-.4.28-.27.42-.63.42-1.09,0-.43-.13-.77-.38-1.02-.25-.26-.63-.38-1.13-.38h-1.01v2.9h.89Z"/><path class="cls-2" d="M41.77,63.86c-.45-.12-.85-.29-1.21-.51v-1.4c.27.21.63.39,1.09.53.45.14.89.21,1.32.21.2,0,.35-.03.45-.08.1-.05.15-.12.15-.19,0-.08-.03-.15-.08-.21-.06-.06-.16-.1-.32-.14l-.99-.23c-.57-.13-.97-.32-1.21-.56-.24-.24-.36-.55-.36-.94,0-.33.1-.61.31-.85.21-.24.51-.43.89-.56.39-.13.84-.2,1.35-.2.46,0,.89.05,1.27.15.39.1.7.23.96.39v1.32c-.26-.16-.56-.28-.9-.38-.34-.09-.69-.14-1.05-.14-.52,0-.78.09-.78.27,0,.08.04.15.12.19.08.04.23.09.44.13l.83.15c.54.1.94.26,1.21.5.26.24.4.59.4,1.06,0,.51-.22.92-.66,1.22s-1.06.45-1.86.45c-.47,0-.93-.06-1.38-.18Z"/><path class="cls-2" d="M47.62,63.68c-.47-.24-.83-.56-1.07-.96s-.36-.86-.36-1.37.12-.96.37-1.36.61-.71,1.09-.94c.48-.23,1.05-.34,1.72-.34.83,0,1.51.18,2.06.53v1.54c-.19-.13-.42-.24-.67-.33-.26-.08-.53-.13-.82-.13-.51,0-.91.1-1.2.29-.29.19-.43.44-.43.75s.14.55.42.75c.28.19.69.29,1.22.29.27,0,.55-.04.81-.12.27-.08.5-.18.69-.3v1.49c-.61.37-1.31.56-2.11.56-.67,0-1.25-.12-1.72-.36Z"/><path class="cls-2" d="M53.48,63.68c-.48-.24-.84-.56-1.09-.97-.25-.41-.38-.87-.38-1.37s.12-.96.38-1.35c.25-.4.61-.71,1.09-.93.47-.23,1.04-.34,1.69-.34s1.22.11,1.69.34.83.53,1.08.93c.25.39.37.85.37,1.36s-.12.96-.37,1.37c-.25.41-.61.73-1.09.97-.48.24-1.04.35-1.69.35s-1.21-.12-1.69-.35ZM55.99,62.18c.2-.2.3-.48.3-.81s-.1-.61-.3-.8c-.2-.2-.47-.3-.82-.3s-.63.1-.83.3c-.2.2-.3.47-.3.8s.1.61.3.81c.2.2.48.31.83.31.35,0,.62-.1.82-.31Z"/><path class="cls-2" d="M63.28,59.02v1.82c-.21-.14-.48-.21-.82-.21-.44,0-.78.14-1.02.41-.24.27-.36.7-.36,1.27v1.55h-2.02v-4.93h1.98v1.57c.11-.57.29-1,.53-1.27.24-.27.56-.41.94-.41.29,0,.54.07.75.2Z"/><path class="cls-2" d="M70,57.79v6.07h-2.02v-1.1c-.17.42-.43.73-.78.95-.35.22-.78.32-1.29.32-.46,0-.86-.11-1.2-.34-.34-.23-.6-.54-.79-.94-.18-.4-.28-.84-.28-1.35,0-.52.09-.98.29-1.39.2-.41.48-.73.85-.96.37-.23.78-.35,1.25-.35.96,0,1.61.43,1.94,1.28v-2.2h2.02ZM67.68,62.15c.21-.2.31-.47.31-.8s-.1-.57-.3-.77c-.2-.2-.48-.3-.82-.3s-.61.1-.82.3c-.2.2-.31.46-.31.78s.1.58.31.78.47.3.81.3c.34,0,.61-.1.82-.31Z"/><path class="cls-2" d="M38.65,59.46c.56,0,1.01-.41,1.01-.93s-.45-.93-1.01-.93-1.01.41-1.01.93.45.93,1.01.93Z"/><path class="cls-2" d="M37.64,60.09c.62.27,1.38.28,2.02,0v3.8h-2.02v-3.8Z"/></svg>