<?xml version="1.0" encoding="UTF-8"?><svg id="microphone-unmuted" xmlns="http://www.w3.org/2000/svg" viewBox="0 0 80 80"><defs><style>.cls-1{fill:#4baf00;stroke-width:0px;}</style></defs><path class="cls-1" d="M40,25c-3.3,0-6,2.7-6,6v6c0,3.3,2.7,5.91,6,5.91s6-2.61,6-5.91v-6c0-3.3-2.7-6-6-6Z"/><path class="cls-1" d="M31,37c0-.82-.68-1.5-1.5-1.5s-1.5.68-1.5,1.5c0,6.02,4.53,11.25,10.5,12v3h-3c-.82,0-1.5.68-1.5,1.5s.68,1.5,1.5,1.5h9c.82,0,1.5-.68,1.5-1.5s-.68-1.5-1.5-1.5h-3v-3c5.97-.75,10.5-5.98,10.5-12,0-.82-.68-1.5-1.5-1.5s-1.5.68-1.5,1.5c0,4.95-4.05,9-9,9s-9-4.05-9-9Z"/></svg>